<svg xmlns="http://www.w3.org/2000/svg" viewBox="635.055 1767 95.891 117.19"><defs><style>.a{fill:#fff;}</style></defs><path class="a" d="M16.232,81.033A16.274,16.274,0,0,1,0,64.8V.386H19.839L35.9,23.575,29.072,35.428,13.57,13.055H12.239V64.8a3.986,3.986,0,0,0,3.994,3.994,4.129,4.129,0,0,0,3.392-1.8c.258-.386,8.331-14.429,16.919-29.287C44.746,23.49,53.206,8.8,54.151,7.257A16.056,16.056,0,0,1,67.677,0,16.247,16.247,0,0,1,83.91,16.232V80.646H64.07L48.01,57.457,54.795,45.6,70.34,67.978h1.331V16.232a3.986,3.986,0,0,0-3.994-3.994,4.129,4.129,0,0,0-3.392,1.8c-.258.386-8.331,14.429-16.919,29.287-8.2,14.214-16.662,28.9-17.606,30.446A16.056,16.056,0,0,1,16.232,81.033Zm.172,35.986V98.9H12.926L8.2,108.687,3.478,98.9H0v18.122H3.521V106.5L7,113.368H9.4l3.478-6.871v10.564H16.4ZM32.379,108c0-3.478-.043-5.5-1.847-7.3a6.464,6.464,0,0,0-4.81-1.889A6.564,6.564,0,0,0,20.87,100.7c-1.8,1.8-1.847,3.822-1.847,7.3s.043,5.5,1.847,7.3a6.564,6.564,0,0,0,4.853,1.889,6.464,6.464,0,0,0,4.81-1.889C32.336,113.454,32.379,111.436,32.379,108Zm-3.521,0c0,3.478-.215,4.294-.9,5.067a3.116,3.116,0,0,1-4.552,0c-.644-.773-.859-1.589-.859-5.067s.215-4.337.859-5.067a2.94,2.94,0,0,1,2.276-.945,3.1,3.1,0,0,1,2.276.945C28.6,103.663,28.857,104.522,28.857,108Zm17.263-5.926V98.94H33.109v3.135h4.724v14.944h3.521V102.074Zm5.368,14.944V98.9H47.967v18.122ZM67.463,108c0-3.478-.043-5.5-1.847-7.3a6.464,6.464,0,0,0-4.81-1.889,6.564,6.564,0,0,0-4.853,1.889c-1.8,1.8-1.847,3.822-1.847,7.3s.043,5.5,1.847,7.3a6.564,6.564,0,0,0,4.853,1.889,6.464,6.464,0,0,0,4.81-1.889C67.42,113.454,67.463,111.436,67.463,108Zm-3.521,0c0,3.478-.215,4.294-.9,5.067a2.9,2.9,0,0,1-2.276.988,2.97,2.97,0,0,1-2.276-.988c-.644-.773-.859-1.589-.859-5.067s.215-4.337.859-5.067a2.94,2.94,0,0,1,2.276-.945,3.1,3.1,0,0,1,2.276.945C63.684,103.663,63.941,104.522,63.941,108Zm19.968,9.018V98.9H80.388v11.079L73.217,98.9H70.082v18.122H73.6V105.9l7.171,11.122Zm7.558-17.649V98.94h-2.92v.429h1.245v3.951h.429V99.369Zm4.423,3.951V98.982h-.429l-1.374,2.748-1.374-2.748h-.429v4.337h.429V99.97l1.117,2.233H94.3l1.117-2.233v3.35Z" transform="translate(635.055 1767)"/></svg>